Patient4_TMGait_0pt8_01_right_18_GRF.mot
version=1
nRows=52
nColumns=19
inDegrees=no
endheader
time	F1x	F1y	F1z	M1x	M1y	M1z	F2x	F2y	F2z	M2x	M2y	M2z	EC1x	EC1y	EC1z	EC2x	EC2y	EC2z
19.98	-1.5487	725.5199	59.0634	-237.5335	-68.0459	836.5163	0.7293	-2.323	-13.0774	3.522	9.6678	-2.9043	-0.0592	0.0182	-0.0073	-0.0462	0.0165	0.9585
19.9914	-2.2515	730.2342	60.3797	-239.1491	-68.6341	839.0485	0.31783	-0.8002	-8.9815	2.731	6.7407	-0.93124	-0.0592	0.0182	-0.0073	-0.0462	0.0165	0.9585
20.0029	-2.3836	734.9344	61.4069	-240.6987	-68.7299	840.7471	-0.033153	0.54862	-5.4586	2.0644	4.2368	0.83258	-0.0592	0.0182	-0.0073	-0.0462	0.0165	0.9585
20.0143	-1.8809	739.0405	62.0835	-241.9816	-68.3026	841.075	-0.29967	1.639	-2.7309	1.5679	2.304	2.2839	-0.0592	0.0182	-0.0073	-0.0462	0.0165	0.9585
20.0257	-0.74619	742.0718	62.3901	-242.8393	-67.3634	839.6477	-0.47527	2.4511	-0.82112	1.2381	0.95748	3.3884	-0.0592	0.0182	-0.0073	-0.0462	0.0165	0.9585
20.0371	0.9337	743.7323	62.3671	-243.172	-65.9881	836.3006	-0.59217	3.014	0.38424	1.05	0.11871	4.1785	-0.0592	0.0182	-0.0073	-0.0462	0.0165	0.9585
20.0486	3.0543	743.8517	62.086	-242.9227	-64.2798	830.9789	-0.66162	3.3537	1.0189	0.96197	-0.30358	4.6702	-0.0592	0.0182	-0.0073	-0.0462	0.0165	0.9585
20.06	5.5317	742.4131	61.6263	-242.0829	-62.3355	823.7952	-0.72061	3.4837	1.2479	0.92495	-0.42187	4.8807	-0.0592	0.0182	-0.0073	-0.0462	0.0165	0.9585
20.0714	8.3047	739.549	61.0857	-240.6927	-60.2635	814.9738	-0.78064	3.3832	1.1989	0.88173	-0.32147	4.7832	-0.0592	0.0182	-0.0073	-0.0462	0.0165	0.9585
20.0829	11.3467	735.5282	60.5589	-238.8351	-58.1649	804.87	-0.85512	3.0297	0.98562	0.78061	-0.081304	4.3493	-0.0592	0.0182	-0.0073	-0.0462	0.0165	0.9585
20.0943	14.6661	730.7677	60.1792	-236.6445	-56.1667	793.981	-0.94774	2.3542	0.68992	0.5642	0.23871	3.4692	-0.0592	0.0182	-0.0073	-0.0462	0.0165	0.9585
20.1057	18.2486	725.7916	60.0446	-234.3031	-54.3677	782.9191	-1.0531	1.2849	0.36896	0.1819	0.58866	2.0443	-0.0592	0.0182	-0.0073	-0.0462	0.0165	0.9585
20.1171	22.0801	721.2564	60.2451	-232.0439	-52.8584	772.4333	-1.1424	-0.26563	0.073625	-0.40914	0.90601	-0.030897	-0.0592	0.0182	-0.0073	-0.0462	0.0165	0.9585
20.1286	26.1561	717.8801	60.8003	-230.1231	-51.6563	763.3142	-1.1746	-2.3339	-0.1627	-1.2249	1.1341	-2.7962	-0.0592	0.0182	-0.0073	-0.0462	0.0165	0.9585
20.14	30.4516	716.3388	61.7133	-228.7796	-50.7629	756.2773	-1.0687	-4.8583	-0.28702	-2.2358	1.1752	-6.1754	-0.0592	0.0182	-0.0073	-0.0462	0.0165	0.9585
20.1514	34.9657	717.1969	62.9535	-228.2094	-50.1344	751.8902	-0.73661	-7.5972	-0.24434	-3.3371	0.91468	-9.8373	-0.0592	0.0182	-0.0073	-0.0462	0.0165	0.9585
20.1629	39.6329	720.7371	64.4758	-228.5109	-49.7289	750.4258	-0.06521	-10.0346	0.055396	-4.3087	0.18355	-13.0983	-0.0592	0.0182	-0.0073	-0.0462	0.0165	0.9585
20.1743	44.3589	726.8326	66.2217	-229.6439	-49.5088	751.7231	1.0474	-11.3068	0.70545	-4.7836	-1.1952	-14.8174	-0.0592	0.0182	-0.0073	-0.0462	0.0165	0.9585
20.1857	48.99	734.8694	68.1261	-231.4069	-49.4509	755.1521	2.6898	-10.1035	1.8314	-4.2071	-3.416	-13.2749	-0.0592	0.0182	-0.0073	-0.0462	0.0165	0.9585
20.1971	53.3873	743.8255	70.0964	-233.4705	-49.5074	759.6554	4.8791	-4.6203	3.535	-1.8237	-6.6067	-6.092	-0.0592	0.0182	-0.0073	-0.0462	0.0165	0.9585
20.2086	57.4668	752.4007	72.01	-235.4235	-49.5919	763.9203	7.5146	7.3853	5.8604	3.2992	-10.7611	9.6973	-0.0592	0.0182	-0.0073	-0.0462	0.0165	0.9585
20.22	61.2555	759.1329	73.6831	-236.8204	-49.5343	766.4614	10.2891	28.3995	8.7259	12.1825	-15.6138	37.3745	-0.0592	0.0182	-0.0073	-0.0462	0.0165	0.9585
20.2314	64.8177	762.4253	74.8789	-237.1864	-49.0998	765.6754	12.5901	60.6783	11.8467	25.7353	-20.498	79.9216	-0.0592	0.0182	-0.0073	-0.0462	0.0165	0.9585
20.2429	68.2582	760.4701	75.3256	-235.9931	-48.0145	759.7739	13.3869	105.4824	14.6132	44.4327	-24.1572	139.0206	-0.0592	0.0182	-0.0073	-0.0462	0.0165	0.9585
20.2543	71.5443	751.2821	74.715	-232.6607	-46.0178	746.8587	11.1067	162.0896	16.1159	67.8967	-24.7423	213.743	-0.0592	0.0182	-0.0073	-0.0462	0.0165	0.9585
20.2657	74.4657	732.8198	72.7581	-226.5881	-42.9254	725.0353	4.2897	226.7197	15.2213	94.474	-20.1835	299.1302	-0.0592	0.0182	-0.0073	-0.0462	0.0165	0.9585
20.2771	76.607	703.3662	69.2216	-217.264	-38.6713	692.7783	-6.7513	292.6417	10.8546	121.3226	-9.3673	386.2632	-0.0592	0.0182	-0.0073	-0.0462	0.0165	0.9585
20.2886	77.4199	661.9502	64.0683	-204.3913	-33.4174	649.2731	-19.7266	352.6342	3.1615	145.5173	6.4517	465.3591	-0.0592	0.0182	-0.0073	-0.0462	0.0165	0.9585
20.3	76.3309	608.7923	57.4812	-188.0113	-27.5317	594.8729	-32.4742	403.5375	-6.7147	165.7969	24.8429	531.9652	-0.0592	0.0182	-0.0073	-0.0462	0.0165	0.9585
20.3114	72.8955	545.4093	49.9027	-168.5424	-21.5704	531.1554	-43.7428	446.3758	-17.3512	182.6439	43.4942	587.1851	-0.0592	0.0182	-0.0073	-0.0462	0.0165	0.9585
20.3229	66.9276	474.4999	41.9088	-146.7598	-16.1185	460.7821	-52.8155	484.0372	-27.6837	197.3041	60.7411	634.7788	-0.0592	0.0182	-0.0073	-0.0462	0.0165	0.9585
20.3343	58.5283	399.651	34.0434	-123.7243	-11.6318	387.2102	-59.4688	519.3664	-36.708	211.008	75.2504	678.5314	-0.0592	0.0182	-0.0073	-0.0462	0.0165	0.9585
20.3457	48.1588	324.9864	26.7401	-100.6874	-8.352	314.3666	-63.8157	553.9866	-43.9112	224.4545	86.4217	720.6635	-0.0592	0.0182	-0.0073	-0.0462	0.0165	0.9585
20.3571	36.6678	254.582	20.327	-78.9111	-6.292	246.0774	-66.1739	588.1789	-49.3314	237.7572	94.42	761.6556	-0.0592	0.0182	-0.0073	-0.0462	0.0165	0.9585
20.3686	25.2118	191.7899	15.0008	-59.4492	-5.2436	185.419	-67.058	621.4167	-53.3252	250.6677	99.9073	800.9679	-0.0592	0.0182	-0.0073	-0.0462	0.0165	0.9585
20.38	14.8956	138.6377	10.827	-42.952	-4.888	134.1889	-66.94	652.8228	-56.5324	262.7778	103.8573	837.6063	-0.0592	0.0182	-0.0073	-0.0462	0.0165	0.9585
20.3914	6.4852	95.6906	7.6876	-29.6185	-4.8504	92.8163	-66.2161	681.447	-59.4081	273.6714	107.0184	870.4705	-0.0592	0.0182	-0.0073	-0.0462	0.0165	0.9585
20.4029	0.29416	62.3873	5.4185	-19.2866	-4.8664	60.7234	-65.1758	706.4384	-62.3222	282.9948	109.9527	898.5401	-0.0592	0.0182	-0.0073	-0.0462	0.0165	0.9585
20.4143	-3.702	37.5635	3.7706	-11.6016	-4.7109	36.7842	-64.0467	727.1502	-65.2221	290.5088	112.7151	921.017	-0.0592	0.0182	-0.0073	-0.0462	0.0165	0.9585
20.4257	-5.7447	19.9096	2.5258	-6.1557	-4.2637	19.7641	-62.9458	743.1817	-67.9458	296.0948	115.1562	937.4315	-0.0592	0.0182	-0.0073	-0.0462	0.0165	0.9585
20.4371	-6.1547	8.0881	1.5716	-2.5293	-3.5362	8.3658	-61.8657	754.5085	-70.1498	299.7938	116.8801	947.7726	-0.0592	0.0182	-0.0073	-0.0462	0.0165	0.9585
20.4486	-5.4639	0.88991	0.8274	-0.33862	-2.6315	1.4162	-60.7254	761.3623	-71.5896	301.7423	117.5662	952.3577	-0.0592	0.0182	-0.0073	-0.0462	0.0165	0.9585
20.46	-4.2715	-2.803	0.3273	0.77345	-1.7798	-2.1584	-59.4138	764.0482	-72.2025	302.087	117.0966	951.6038	-0.0592	0.0182	-0.0073	-0.0462	0.0165	0.9585
20.4714	-2.9701	-4.0997	0.005587	1.1521	-1.0555	-3.4117	-57.8388	762.8859	-72.1058	300.9586	115.5765	945.9398	-0.0592	0.0182	-0.0073	-0.0462	0.0165	0.9585
20.4829	-1.7918	-3.9018	-0.17415	1.0796	-0.50449	-3.1947	-55.9544	758.375	-71.4817	298.5529	113.2144	936.0192	-0.0592	0.0182	-0.0073	-0.0462	0.0165	0.9585
20.4943	-0.84464	-2.9304	-0.26206	0.77588	-0.11798	-2.2149	-53.7357	751.3726	-70.4798	295.1997	110.2108	922.9285	-0.0592	0.0182	-0.0073	-0.0462	0.0165	0.9585
20.5057	-0.16214	-1.6751	-0.29448	0.3885	0.12873	-0.95052	-51.2141	742.9837	-69.2664	291.3242	106.8006	908.0385	-0.0592	0.0182	-0.0073	-0.0462	0.0165	0.9585
20.5171	0.28804	-0.43172	-0.28215	0.0066371	0.25419	0.30405	-48.4444	734.4053	-67.9441	287.3928	103.1601	892.806	-0.0592	0.0182	-0.0073	-0.0462	0.0165	0.9585
20.5286	0.53874	0.62172	-0.25614	-0.31887	0.30048	1.3764	-45.487	726.7863	-66.621	283.8567	99.4608	878.6008	-0.0592	0.0182	-0.0073	-0.0462	0.0165	0.9585
20.54	0.65026	1.4496	-0.20402	-0.57674	0.27564	2.224	-42.427	721.0813	-65.3629	281.0979	95.8298	866.5199	-0.0592	0.0182	-0.0073	-0.0462	0.0165	0.9585
20.5514	0.6587	2.0398	-0.14846	-0.76413	0.21819	2.8238	-39.3156	717.9467	-64.2446	279.3819	92.3797	857.3012	-0.0592	0.0182	-0.0073	-0.0462	0.0165	0.9585
20.5629	0.60393	2.4349	-0.0852	-0.89017	0.13672	3.2137	-36.1673	717.684	-63.3083	278.8368	89.1679	851.2532	-0.0592	0.0182	-0.0073	-0.0462	0.0165	0.9585
